<mxfile host="app.diagrams.net" agent="Mozilla/5.0 (Windows NT 10.0; Win64; x64) AppleWebKit/537.36 (KHTML, like Gecko) Chrome/128.0.0.0 Safari/537.36" version="24.7.12">
  <diagram name="Page-1" id="0783ab3e-0a74-02c8-0abd-f7b4e66b4bec">
    <mxGraphModel grid="1" page="1" gridSize="10" guides="1" tooltips="1" connect="1" arrows="1" fold="1" pageScale="1" pageWidth="850" pageHeight="1100" background="none" math="0" shadow="0">
      <root>
        <mxCell id="0" />
        <mxCell id="1" parent="0" />
        <mxCell id="1c1d494c118603dd-1" value="SalvaPos" style="swimlane;html=1;childLayout=stackLayout;startSize=20;rounded=0;shadow=0;comic=0;labelBackgroundColor=none;strokeWidth=1;fontFamily=Verdana;fontSize=12;align=center;" vertex="1" parent="1">
          <mxGeometry x="40" y="20" width="1620" height="1270" as="geometry" />
        </mxCell>
        <mxCell id="1c1d494c118603dd-2" value="Lane 1" style="swimlane;html=1;startSize=20;" vertex="1" parent="1c1d494c118603dd-1">
          <mxGeometry y="20" width="960" height="1250" as="geometry" />
        </mxCell>
        <mxCell id="SUvyK8LqccQRlG-bGGpN-1" value="&lt;font color=&quot;#0d0d0d&quot;&gt;usuario&lt;/font&gt;" style="ellipse;whiteSpace=wrap;html=1;rounded=0;shadow=0;comic=0;labelBackgroundColor=none;strokeWidth=1;fillColor=#FFFFFF;fontFamily=Verdana;fontSize=12;align=center;" vertex="1" parent="1c1d494c118603dd-2">
          <mxGeometry x="100" y="40" width="50" height="40" as="geometry" />
        </mxCell>
        <mxCell id="SUvyK8LqccQRlG-bGGpN-4" value="" style="endArrow=classic;html=1;rounded=0;exitX=0.5;exitY=1;exitDx=0;exitDy=0;entryX=0.454;entryY=0.075;entryDx=0;entryDy=0;entryPerimeter=0;" edge="1" parent="1c1d494c118603dd-2" source="SUvyK8LqccQRlG-bGGpN-1" target="SUvyK8LqccQRlG-bGGpN-6">
          <mxGeometry width="50" height="50" relative="1" as="geometry">
            <mxPoint x="360" y="280" as="sourcePoint" />
            <mxPoint x="125" y="150" as="targetPoint" />
          </mxGeometry>
        </mxCell>
        <mxCell id="SUvyK8LqccQRlG-bGGpN-10" value="&lt;font style=&quot;font-size: 11px;&quot;&gt;¿El Producto esta en nuestro punto de venta ?&lt;/font&gt;" style="rhombus;whiteSpace=wrap;html=1;" vertex="1" parent="1c1d494c118603dd-2">
          <mxGeometry x="70" y="180" width="120" height="120" as="geometry" />
        </mxCell>
        <mxCell id="SUvyK8LqccQRlG-bGGpN-12" value="si&amp;nbsp;" style="text;html=1;align=center;verticalAlign=middle;whiteSpace=wrap;rounded=0;" vertex="1" parent="1c1d494c118603dd-2">
          <mxGeometry x="160" y="190" width="60" height="30" as="geometry" />
        </mxCell>
        <mxCell id="SUvyK8LqccQRlG-bGGpN-13" value="no" style="text;html=1;align=center;verticalAlign=middle;whiteSpace=wrap;rounded=0;" vertex="1" parent="1c1d494c118603dd-2">
          <mxGeometry x="40" y="190" width="60" height="30" as="geometry" />
        </mxCell>
        <mxCell id="SUvyK8LqccQRlG-bGGpN-14" value="" style="endArrow=classic;html=1;rounded=0;exitX=0.5;exitY=1;exitDx=0;exitDy=0;entryX=0.5;entryY=0;entryDx=0;entryDy=0;" edge="1" parent="1c1d494c118603dd-2" source="SUvyK8LqccQRlG-bGGpN-6" target="SUvyK8LqccQRlG-bGGpN-10">
          <mxGeometry width="50" height="50" relative="1" as="geometry">
            <mxPoint x="360" y="280" as="sourcePoint" />
            <mxPoint x="410" y="230" as="targetPoint" />
          </mxGeometry>
        </mxCell>
        <mxCell id="SUvyK8LqccQRlG-bGGpN-15" value="busca en la misma pagina y le compra a otro proveedor&amp;nbsp;" style="rounded=1;whiteSpace=wrap;html=1;" vertex="1" parent="1c1d494c118603dd-2">
          <mxGeometry x="10" y="320" width="100" height="60" as="geometry" />
        </mxCell>
        <mxCell id="SUvyK8LqccQRlG-bGGpN-17" value="" style="endArrow=classic;html=1;rounded=0;exitX=0;exitY=0.5;exitDx=0;exitDy=0;" edge="1" parent="1c1d494c118603dd-2" source="SUvyK8LqccQRlG-bGGpN-10">
          <mxGeometry width="50" height="50" relative="1" as="geometry">
            <mxPoint x="360" y="280" as="sourcePoint" />
            <mxPoint x="50" y="320" as="targetPoint" />
            <Array as="points">
              <mxPoint x="50" y="240" />
            </Array>
          </mxGeometry>
        </mxCell>
        <mxCell id="SUvyK8LqccQRlG-bGGpN-19" value="" style="endArrow=classic;html=1;rounded=0;entryX=0.5;entryY=0;entryDx=0;entryDy=0;exitX=0.5;exitY=1;exitDx=0;exitDy=0;" edge="1" parent="1c1d494c118603dd-2" source="SUvyK8LqccQRlG-bGGpN-15" target="SUvyK8LqccQRlG-bGGpN-53">
          <mxGeometry width="50" height="50" relative="1" as="geometry">
            <mxPoint x="360" y="280" as="sourcePoint" />
            <mxPoint x="60" y="465" as="targetPoint" />
          </mxGeometry>
        </mxCell>
        <mxCell id="SUvyK8LqccQRlG-bGGpN-20" value="Revisa el Valor y compra el producto" style="rounded=1;whiteSpace=wrap;html=1;" vertex="1" parent="1c1d494c118603dd-2">
          <mxGeometry x="180" y="320" width="100" height="60" as="geometry" />
        </mxCell>
        <mxCell id="SUvyK8LqccQRlG-bGGpN-21" value="" style="endArrow=classic;html=1;rounded=0;entryX=0.5;entryY=0;entryDx=0;entryDy=0;exitX=1;exitY=0.5;exitDx=0;exitDy=0;" edge="1" parent="1c1d494c118603dd-2" source="SUvyK8LqccQRlG-bGGpN-10" target="SUvyK8LqccQRlG-bGGpN-20">
          <mxGeometry width="50" height="50" relative="1" as="geometry">
            <mxPoint x="360" y="270" as="sourcePoint" />
            <mxPoint x="410" y="220" as="targetPoint" />
            <Array as="points">
              <mxPoint x="230" y="240" />
            </Array>
          </mxGeometry>
        </mxCell>
        <mxCell id="SUvyK8LqccQRlG-bGGpN-30" value="Usuario" style="swimlane;html=1;startSize=20;" vertex="1" parent="1c1d494c118603dd-2">
          <mxGeometry width="960" height="1250" as="geometry" />
        </mxCell>
        <mxCell id="SUvyK8LqccQRlG-bGGpN-31" value="&lt;font color=&quot;#0d0d0d&quot;&gt;usuario&lt;/font&gt;" style="ellipse;whiteSpace=wrap;html=1;rounded=0;shadow=0;comic=0;labelBackgroundColor=none;strokeWidth=1;fillColor=#FFFFFF;fontFamily=Verdana;fontSize=12;align=center;" vertex="1" parent="SUvyK8LqccQRlG-bGGpN-30">
          <mxGeometry x="100" y="40" width="50" height="40" as="geometry" />
        </mxCell>
        <mxCell id="SUvyK8LqccQRlG-bGGpN-34" value="&lt;font style=&quot;font-size: 11px;&quot;&gt;¿El Producto esta en nuestro punto de venta ?&lt;/font&gt;" style="rhombus;whiteSpace=wrap;html=1;" vertex="1" parent="SUvyK8LqccQRlG-bGGpN-30">
          <mxGeometry x="70" y="180" width="120" height="120" as="geometry" />
        </mxCell>
        <mxCell id="SUvyK8LqccQRlG-bGGpN-35" value="si&amp;nbsp;" style="text;html=1;align=center;verticalAlign=middle;whiteSpace=wrap;rounded=0;" vertex="1" parent="SUvyK8LqccQRlG-bGGpN-30">
          <mxGeometry x="160" y="190" width="60" height="30" as="geometry" />
        </mxCell>
        <mxCell id="SUvyK8LqccQRlG-bGGpN-36" value="no" style="text;html=1;align=center;verticalAlign=middle;whiteSpace=wrap;rounded=0;" vertex="1" parent="SUvyK8LqccQRlG-bGGpN-30">
          <mxGeometry x="40" y="190" width="60" height="30" as="geometry" />
        </mxCell>
        <mxCell id="SUvyK8LqccQRlG-bGGpN-38" value="busca en la misma pagina y le compra a otro proveedor&amp;nbsp;" style="rounded=1;whiteSpace=wrap;html=1;" vertex="1" parent="SUvyK8LqccQRlG-bGGpN-30">
          <mxGeometry x="10" y="320" width="100" height="60" as="geometry" />
        </mxCell>
        <mxCell id="SUvyK8LqccQRlG-bGGpN-39" value="" style="endArrow=classic;html=1;rounded=0;exitX=0;exitY=0.5;exitDx=0;exitDy=0;" edge="1" parent="SUvyK8LqccQRlG-bGGpN-30" source="SUvyK8LqccQRlG-bGGpN-34">
          <mxGeometry width="50" height="50" relative="1" as="geometry">
            <mxPoint x="360" y="280" as="sourcePoint" />
            <mxPoint x="50" y="320" as="targetPoint" />
            <Array as="points">
              <mxPoint x="50" y="240" />
            </Array>
          </mxGeometry>
        </mxCell>
        <mxCell id="SUvyK8LqccQRlG-bGGpN-53" value="" style="ellipse;whiteSpace=wrap;html=1;aspect=fixed;" vertex="1" parent="SUvyK8LqccQRlG-bGGpN-30">
          <mxGeometry x="40" y="480" width="40" height="40" as="geometry" />
        </mxCell>
        <mxCell id="SUvyK8LqccQRlG-bGGpN-54" value="Fin" style="text;html=1;align=center;verticalAlign=middle;whiteSpace=wrap;rounded=0;" vertex="1" parent="SUvyK8LqccQRlG-bGGpN-30">
          <mxGeometry x="30" y="520" width="60" height="30" as="geometry" />
        </mxCell>
        <mxCell id="SUvyK8LqccQRlG-bGGpN-6" value="Revisa en el sitio el producto que quiere comprar&amp;nbsp;" style="rounded=1;whiteSpace=wrap;html=1;shadow=0;comic=0;labelBackgroundColor=none;strokeWidth=1;fontFamily=Verdana;fontSize=12;align=center;arcSize=50;" vertex="1" parent="SUvyK8LqccQRlG-bGGpN-30">
          <mxGeometry x="60" y="110" width="140" height="40" as="geometry" />
        </mxCell>
        <mxCell id="1c1d494c118603dd-3" value="Sistema de venta Web" style="swimlane;html=1;startSize=20;" vertex="1" parent="SUvyK8LqccQRlG-bGGpN-30">
          <mxGeometry x="310" width="650" height="1250" as="geometry" />
        </mxCell>
        <mxCell id="SUvyK8LqccQRlG-bGGpN-8" value="Le llega una solicitud al sistema&amp;nbsp; que un usuario compro un producto" style="rounded=1;whiteSpace=wrap;html=1;shadow=0;comic=0;labelBackgroundColor=none;strokeWidth=1;fontFamily=Verdana;fontSize=12;align=center;arcSize=50;" vertex="1" parent="1c1d494c118603dd-3">
          <mxGeometry x="248.63" y="140" width="162.75" height="60" as="geometry" />
        </mxCell>
        <mxCell id="SUvyK8LqccQRlG-bGGpN-65" value="Selecciona el metodo de pago" style="rounded=1;whiteSpace=wrap;html=1;" vertex="1" parent="1c1d494c118603dd-3">
          <mxGeometry x="5" y="750" width="100" height="60" as="geometry" />
        </mxCell>
        <mxCell id="SUvyK8LqccQRlG-bGGpN-90" value="¿El pago es aprobado?" style="rhombus;whiteSpace=wrap;html=1;" vertex="1" parent="1c1d494c118603dd-3">
          <mxGeometry x="400" y="840" width="80" height="80" as="geometry" />
        </mxCell>
        <mxCell id="SUvyK8LqccQRlG-bGGpN-93" value="" style="ellipse;whiteSpace=wrap;html=1;aspect=fixed;" vertex="1" parent="1c1d494c118603dd-3">
          <mxGeometry x="139.25" y="980" width="40" height="40" as="geometry" />
        </mxCell>
        <mxCell id="SUvyK8LqccQRlG-bGGpN-94" style="edgeStyle=orthogonalEdgeStyle;rounded=0;orthogonalLoop=1;jettySize=auto;html=1;exitX=0.5;exitY=1;exitDx=0;exitDy=0;" edge="1" parent="1c1d494c118603dd-3">
          <mxGeometry relative="1" as="geometry">
            <mxPoint x="209.25" y="660" as="sourcePoint" />
            <mxPoint x="209.25" y="660" as="targetPoint" />
          </mxGeometry>
        </mxCell>
        <mxCell id="SUvyK8LqccQRlG-bGGpN-95" value="Fin" style="text;html=1;align=center;verticalAlign=middle;whiteSpace=wrap;rounded=0;" vertex="1" parent="1c1d494c118603dd-3">
          <mxGeometry x="129.25" y="1020" width="60" height="30" as="geometry" />
        </mxCell>
        <mxCell id="SUvyK8LqccQRlG-bGGpN-99" value="Muestra mensaje de transacción exitosa" style="rounded=1;whiteSpace=wrap;html=1;" vertex="1" parent="1c1d494c118603dd-3">
          <mxGeometry x="350" y="1030" width="100" height="60" as="geometry" />
        </mxCell>
        <mxCell id="SUvyK8LqccQRlG-bGGpN-100" value="Genera boleta" style="rounded=1;whiteSpace=wrap;html=1;" vertex="1" parent="1c1d494c118603dd-3">
          <mxGeometry x="340" y="1150" width="100" height="60" as="geometry" />
        </mxCell>
        <mxCell id="SUvyK8LqccQRlG-bGGpN-102" value="" style="endArrow=classic;html=1;rounded=0;entryX=0.58;entryY=0.033;entryDx=0;entryDy=0;exitX=0.5;exitY=1;exitDx=0;exitDy=0;entryPerimeter=0;" edge="1" parent="1c1d494c118603dd-3" source="SUvyK8LqccQRlG-bGGpN-99" target="SUvyK8LqccQRlG-bGGpN-100">
          <mxGeometry width="50" height="50" relative="1" as="geometry">
            <mxPoint x="180" y="970" as="sourcePoint" />
            <mxPoint x="230" y="920" as="targetPoint" />
          </mxGeometry>
        </mxCell>
        <mxCell id="SUvyK8LqccQRlG-bGGpN-101" value="" style="endArrow=classic;html=1;rounded=0;entryX=1;entryY=0.5;entryDx=0;entryDy=0;exitX=0;exitY=0.5;exitDx=0;exitDy=0;" edge="1" parent="1c1d494c118603dd-3" source="SUvyK8LqccQRlG-bGGpN-100" target="SUvyK8LqccQRlG-bGGpN-93">
          <mxGeometry width="50" height="50" relative="1" as="geometry">
            <mxPoint x="-160" y="1180" as="sourcePoint" />
            <mxPoint x="230" y="960" as="targetPoint" />
            <Array as="points">
              <mxPoint x="260" y="1180" />
              <mxPoint x="260" y="1000" />
            </Array>
          </mxGeometry>
        </mxCell>
        <mxCell id="SUvyK8LqccQRlG-bGGpN-103" value="Si" style="text;html=1;align=center;verticalAlign=middle;whiteSpace=wrap;rounded=0;" vertex="1" parent="1c1d494c118603dd-3">
          <mxGeometry x="370" y="920" width="60" height="30" as="geometry" />
        </mxCell>
        <mxCell id="SUvyK8LqccQRlG-bGGpN-104" value="No" style="text;html=1;align=center;verticalAlign=middle;whiteSpace=wrap;rounded=0;" vertex="1" parent="1c1d494c118603dd-3">
          <mxGeometry x="460" y="840" width="60" height="30" as="geometry" />
        </mxCell>
        <mxCell id="SUvyK8LqccQRlG-bGGpN-105" value="Muestra mensaje de error de la transacción" style="rounded=1;whiteSpace=wrap;html=1;" vertex="1" parent="1c1d494c118603dd-3">
          <mxGeometry x="530" y="850" width="100" height="60" as="geometry" />
        </mxCell>
        <mxCell id="SUvyK8LqccQRlG-bGGpN-106" value="" style="endArrow=classic;html=1;rounded=0;entryX=0;entryY=0.5;entryDx=0;entryDy=0;exitX=1;exitY=0.5;exitDx=0;exitDy=0;" edge="1" parent="1c1d494c118603dd-3" source="SUvyK8LqccQRlG-bGGpN-90" target="SUvyK8LqccQRlG-bGGpN-105">
          <mxGeometry width="50" height="50" relative="1" as="geometry">
            <mxPoint x="180" y="1000" as="sourcePoint" />
            <mxPoint x="230" y="950" as="targetPoint" />
          </mxGeometry>
        </mxCell>
        <mxCell id="SUvyK8LqccQRlG-bGGpN-107" value="" style="endArrow=classic;html=1;rounded=0;exitX=0.5;exitY=0;exitDx=0;exitDy=0;entryX=1;entryY=0.5;entryDx=0;entryDy=0;" edge="1" parent="1c1d494c118603dd-3" source="SUvyK8LqccQRlG-bGGpN-105" target="SUvyK8LqccQRlG-bGGpN-65">
          <mxGeometry width="50" height="50" relative="1" as="geometry">
            <mxPoint x="180" y="800" as="sourcePoint" />
            <mxPoint x="230" y="750" as="targetPoint" />
            <Array as="points">
              <mxPoint x="580" y="780" />
            </Array>
          </mxGeometry>
        </mxCell>
        <mxCell id="SUvyK8LqccQRlG-bGGpN-88" value="Paga" style="rounded=1;whiteSpace=wrap;html=1;" vertex="1" parent="SUvyK8LqccQRlG-bGGpN-30">
          <mxGeometry x="120" y="860" width="100" height="60" as="geometry" />
        </mxCell>
        <mxCell id="SUvyK8LqccQRlG-bGGpN-89" value="" style="endArrow=classic;html=1;rounded=0;exitX=0;exitY=0.5;exitDx=0;exitDy=0;entryX=0.5;entryY=0;entryDx=0;entryDy=0;" edge="1" parent="SUvyK8LqccQRlG-bGGpN-30" source="SUvyK8LqccQRlG-bGGpN-65" target="SUvyK8LqccQRlG-bGGpN-88">
          <mxGeometry width="50" height="50" relative="1" as="geometry">
            <mxPoint x="360" y="870" as="sourcePoint" />
            <mxPoint x="410" y="820" as="targetPoint" />
            <Array as="points">
              <mxPoint x="170" y="780" />
            </Array>
          </mxGeometry>
        </mxCell>
        <mxCell id="SUvyK8LqccQRlG-bGGpN-91" value="" style="endArrow=classic;html=1;rounded=0;entryX=0;entryY=0.5;entryDx=0;entryDy=0;exitX=1.002;exitY=0.37;exitDx=0;exitDy=0;exitPerimeter=0;" edge="1" parent="SUvyK8LqccQRlG-bGGpN-30" source="SUvyK8LqccQRlG-bGGpN-88" target="SUvyK8LqccQRlG-bGGpN-90">
          <mxGeometry width="50" height="50" relative="1" as="geometry">
            <mxPoint x="360" y="870" as="sourcePoint" />
            <mxPoint x="410" y="820" as="targetPoint" />
          </mxGeometry>
        </mxCell>
        <mxCell id="NAJVmWI-Qq9D1-8RfRDg-26" value="" style="ellipse;whiteSpace=wrap;html=1;aspect=fixed;" vertex="1" parent="SUvyK8LqccQRlG-bGGpN-30">
          <mxGeometry x="20" y="1050" width="40" height="40" as="geometry" />
        </mxCell>
        <mxCell id="NAJVmWI-Qq9D1-8RfRDg-27" value="" style="endArrow=classic;html=1;rounded=0;exitX=0;exitY=0.5;exitDx=0;exitDy=0;entryX=0.5;entryY=0;entryDx=0;entryDy=0;" edge="1" parent="SUvyK8LqccQRlG-bGGpN-30" target="NAJVmWI-Qq9D1-8RfRDg-26">
          <mxGeometry width="50" height="50" relative="1" as="geometry">
            <mxPoint x="170" y="565" as="sourcePoint" />
            <mxPoint x="40" y="1040" as="targetPoint" />
            <Array as="points">
              <mxPoint x="40" y="565" />
            </Array>
          </mxGeometry>
        </mxCell>
        <mxCell id="NAJVmWI-Qq9D1-8RfRDg-29" value="Fin" style="text;html=1;align=center;verticalAlign=middle;whiteSpace=wrap;rounded=0;" vertex="1" parent="SUvyK8LqccQRlG-bGGpN-30">
          <mxGeometry x="10" y="1090" width="60" height="30" as="geometry" />
        </mxCell>
        <mxCell id="SUvyK8LqccQRlG-bGGpN-63" value="" style="edgeStyle=orthogonalEdgeStyle;rounded=0;orthogonalLoop=1;jettySize=auto;html=1;entryX=0;entryY=0.5;entryDx=0;entryDy=0;" edge="1" parent="1c1d494c118603dd-2" source="SUvyK8LqccQRlG-bGGpN-20" target="SUvyK8LqccQRlG-bGGpN-8">
          <mxGeometry relative="1" as="geometry" />
        </mxCell>
        <mxCell id="SUvyK8LqccQRlG-bGGpN-98" value="" style="endArrow=classic;html=1;rounded=0;exitX=0.5;exitY=1;exitDx=0;exitDy=0;" edge="1" parent="1" source="SUvyK8LqccQRlG-bGGpN-90">
          <mxGeometry width="50" height="50" relative="1" as="geometry">
            <mxPoint x="520" y="880" as="sourcePoint" />
            <mxPoint x="740" y="1070" as="targetPoint" />
            <Array as="points">
              <mxPoint x="790" y="990" />
              <mxPoint x="740" y="990" />
            </Array>
          </mxGeometry>
        </mxCell>
        <mxCell id="NAJVmWI-Qq9D1-8RfRDg-1" value="Farmacéutico" style="swimlane;html=1;startSize=20;" vertex="1" parent="1">
          <mxGeometry x="1000" y="40" width="660" height="1250" as="geometry" />
        </mxCell>
        <mxCell id="NAJVmWI-Qq9D1-8RfRDg-2" value="&lt;font color=&quot;#0d0d0d&quot;&gt;Farmaceutico&lt;/font&gt;&lt;div&gt;&lt;font color=&quot;#0d0d0d&quot;&gt;&lt;br&gt;&lt;/font&gt;&lt;/div&gt;" style="ellipse;whiteSpace=wrap;html=1;rounded=0;shadow=0;comic=0;labelBackgroundColor=none;strokeWidth=1;fillColor=#FFFFFF;fontFamily=Verdana;fontSize=12;align=center;" vertex="1" parent="NAJVmWI-Qq9D1-8RfRDg-1">
          <mxGeometry x="66.25" y="40" width="102.25" height="60" as="geometry" />
        </mxCell>
        <mxCell id="NAJVmWI-Qq9D1-8RfRDg-5" value="El farmacéutico escanea los productos que el usuario compro" style="rounded=1;whiteSpace=wrap;html=1;shadow=0;comic=0;labelBackgroundColor=none;strokeWidth=1;fontFamily=Verdana;fontSize=12;align=center;arcSize=50;" vertex="1" parent="NAJVmWI-Qq9D1-8RfRDg-1">
          <mxGeometry x="32.629999999999995" y="230" width="162.75" height="60" as="geometry" />
        </mxCell>
        <mxCell id="NAJVmWI-Qq9D1-8RfRDg-7" value="¿Esta el cliente en la sucursal?" style="rhombus;whiteSpace=wrap;html=1;" vertex="1" parent="NAJVmWI-Qq9D1-8RfRDg-1">
          <mxGeometry x="58.5" y="320" width="110" height="110" as="geometry" />
        </mxCell>
        <mxCell id="NAJVmWI-Qq9D1-8RfRDg-8" value="si&amp;nbsp;" style="text;html=1;align=center;verticalAlign=middle;whiteSpace=wrap;rounded=0;" vertex="1" parent="NAJVmWI-Qq9D1-8RfRDg-1">
          <mxGeometry x="55" y="320" width="60" height="30" as="geometry" />
        </mxCell>
        <mxCell id="NAJVmWI-Qq9D1-8RfRDg-9" value="Se llama al cliente con el numero" style="rounded=1;whiteSpace=wrap;html=1;" vertex="1" parent="NAJVmWI-Qq9D1-8RfRDg-1">
          <mxGeometry y="455" width="100" height="60" as="geometry" />
        </mxCell>
        <mxCell id="NAJVmWI-Qq9D1-8RfRDg-10" value="no" style="text;html=1;align=center;verticalAlign=middle;whiteSpace=wrap;rounded=0;" vertex="1" parent="NAJVmWI-Qq9D1-8RfRDg-1">
          <mxGeometry x="138.5" y="320" width="60" height="30" as="geometry" />
        </mxCell>
        <mxCell id="NAJVmWI-Qq9D1-8RfRDg-11" value="" style="endArrow=classic;html=1;rounded=0;entryX=0.5;entryY=0;entryDx=0;entryDy=0;exitX=0;exitY=0.5;exitDx=0;exitDy=0;" edge="1" parent="NAJVmWI-Qq9D1-8RfRDg-1" source="NAJVmWI-Qq9D1-8RfRDg-7" target="NAJVmWI-Qq9D1-8RfRDg-9">
          <mxGeometry width="50" height="50" relative="1" as="geometry">
            <mxPoint x="60" y="340" as="sourcePoint" />
            <mxPoint x="110" y="290" as="targetPoint" />
            <Array as="points">
              <mxPoint x="50" y="375" />
            </Array>
          </mxGeometry>
        </mxCell>
        <mxCell id="NAJVmWI-Qq9D1-8RfRDg-12" value="" style="endArrow=classic;html=1;rounded=0;entryX=0.5;entryY=0;entryDx=0;entryDy=0;exitX=0.5;exitY=1;exitDx=0;exitDy=0;" edge="1" parent="NAJVmWI-Qq9D1-8RfRDg-1" source="NAJVmWI-Qq9D1-8RfRDg-5" target="NAJVmWI-Qq9D1-8RfRDg-7">
          <mxGeometry width="50" height="50" relative="1" as="geometry">
            <mxPoint x="60" y="340" as="sourcePoint" />
            <mxPoint x="110" y="290" as="targetPoint" />
          </mxGeometry>
        </mxCell>
        <mxCell id="NAJVmWI-Qq9D1-8RfRDg-13" value="Se empaca el producto y se le pega el baucher con el numero del cliente hata que llegue a la sucursal" style="rounded=1;whiteSpace=wrap;html=1;" vertex="1" parent="NAJVmWI-Qq9D1-8RfRDg-1">
          <mxGeometry x="150" y="450" width="118.5" height="80" as="geometry" />
        </mxCell>
        <mxCell id="NAJVmWI-Qq9D1-8RfRDg-14" value="" style="endArrow=classic;html=1;rounded=0;entryX=0.587;entryY=-0.027;entryDx=0;entryDy=0;exitX=1;exitY=0.5;exitDx=0;exitDy=0;entryPerimeter=0;" edge="1" parent="NAJVmWI-Qq9D1-8RfRDg-1" source="NAJVmWI-Qq9D1-8RfRDg-7" target="NAJVmWI-Qq9D1-8RfRDg-13">
          <mxGeometry width="50" height="50" relative="1" as="geometry">
            <mxPoint x="60" y="460" as="sourcePoint" />
            <mxPoint x="110" y="410" as="targetPoint" />
            <Array as="points">
              <mxPoint x="220" y="375" />
            </Array>
          </mxGeometry>
        </mxCell>
        <mxCell id="NAJVmWI-Qq9D1-8RfRDg-15" value="" style="ellipse;whiteSpace=wrap;html=1;aspect=fixed;" vertex="1" parent="NAJVmWI-Qq9D1-8RfRDg-1">
          <mxGeometry x="189.25" y="590" width="40" height="40" as="geometry" />
        </mxCell>
        <mxCell id="NAJVmWI-Qq9D1-8RfRDg-16" value="" style="endArrow=classic;html=1;rounded=0;entryX=0.5;entryY=0;entryDx=0;entryDy=0;exitX=0.5;exitY=1;exitDx=0;exitDy=0;" edge="1" parent="NAJVmWI-Qq9D1-8RfRDg-1" source="NAJVmWI-Qq9D1-8RfRDg-13" target="NAJVmWI-Qq9D1-8RfRDg-15">
          <mxGeometry width="50" height="50" relative="1" as="geometry">
            <mxPoint x="60" y="460" as="sourcePoint" />
            <mxPoint x="110" y="410" as="targetPoint" />
          </mxGeometry>
        </mxCell>
        <mxCell id="NAJVmWI-Qq9D1-8RfRDg-17" value="Fin" style="text;html=1;align=center;verticalAlign=middle;whiteSpace=wrap;rounded=0;" vertex="1" parent="NAJVmWI-Qq9D1-8RfRDg-1">
          <mxGeometry x="179.25" y="630" width="60" height="30" as="geometry" />
        </mxCell>
        <mxCell id="NAJVmWI-Qq9D1-8RfRDg-28" style="edgeStyle=orthogonalEdgeStyle;rounded=0;orthogonalLoop=1;jettySize=auto;html=1;exitX=0.5;exitY=1;exitDx=0;exitDy=0;" edge="1" parent="NAJVmWI-Qq9D1-8RfRDg-1" source="NAJVmWI-Qq9D1-8RfRDg-17" target="NAJVmWI-Qq9D1-8RfRDg-17">
          <mxGeometry relative="1" as="geometry" />
        </mxCell>
        <mxCell id="G-eda2eB4SDmfle7X4tl-1" value="" style="endArrow=classic;html=1;rounded=0;exitX=0.5;exitY=1;exitDx=0;exitDy=0;entryX=0.5;entryY=0;entryDx=0;entryDy=0;" edge="1" parent="NAJVmWI-Qq9D1-8RfRDg-1" source="NAJVmWI-Qq9D1-8RfRDg-2" target="NAJVmWI-Qq9D1-8RfRDg-5">
          <mxGeometry width="50" height="50" relative="1" as="geometry">
            <mxPoint x="154.99" y="100" as="sourcePoint" />
            <mxPoint x="117" y="220" as="targetPoint" />
          </mxGeometry>
        </mxCell>
        <mxCell id="NAJVmWI-Qq9D1-8RfRDg-6" value="" style="endArrow=classic;html=1;rounded=0;entryX=0.162;entryY=-0.017;entryDx=0;entryDy=0;exitX=1;exitY=0.5;exitDx=0;exitDy=0;entryPerimeter=0;" edge="1" parent="1" source="SUvyK8LqccQRlG-bGGpN-8" target="NAJVmWI-Qq9D1-8RfRDg-5">
          <mxGeometry width="50" height="50" relative="1" as="geometry">
            <mxPoint x="1114.005" y="210" as="sourcePoint" />
            <mxPoint x="1060" y="190" as="targetPoint" />
            <Array as="points">
              <mxPoint x="1059" y="210" />
            </Array>
          </mxGeometry>
        </mxCell>
        <mxCell id="NAJVmWI-Qq9D1-8RfRDg-20" value="" style="endArrow=classic;html=1;rounded=0;exitX=0.5;exitY=1;exitDx=0;exitDy=0;entryX=0;entryY=0.25;entryDx=0;entryDy=0;" edge="1" parent="1" source="NAJVmWI-Qq9D1-8RfRDg-18" target="SUvyK8LqccQRlG-bGGpN-65">
          <mxGeometry width="50" height="50" relative="1" as="geometry">
            <mxPoint x="1060" y="630" as="sourcePoint" />
            <mxPoint x="940" y="760" as="targetPoint" />
            <Array as="points">
              <mxPoint x="248" y="710" />
              <mxPoint x="248" y="805" />
            </Array>
          </mxGeometry>
        </mxCell>
        <mxCell id="NAJVmWI-Qq9D1-8RfRDg-18" value="¿Realizara la compra ?&amp;nbsp;" style="rhombus;whiteSpace=wrap;html=1;" vertex="1" parent="1">
          <mxGeometry x="200" y="555" width="95" height="100" as="geometry" />
        </mxCell>
        <mxCell id="NAJVmWI-Qq9D1-8RfRDg-21" value="" style="endArrow=classic;html=1;rounded=0;exitX=0.5;exitY=1;exitDx=0;exitDy=0;entryX=1;entryY=0.5;entryDx=0;entryDy=0;" edge="1" parent="1" source="NAJVmWI-Qq9D1-8RfRDg-9" target="NAJVmWI-Qq9D1-8RfRDg-18">
          <mxGeometry width="50" height="50" relative="1" as="geometry">
            <mxPoint x="1060" y="630" as="sourcePoint" />
            <mxPoint x="1110" y="580" as="targetPoint" />
            <Array as="points">
              <mxPoint x="1050" y="600" />
            </Array>
          </mxGeometry>
        </mxCell>
        <mxCell id="G-eda2eB4SDmfle7X4tl-4" value="No" style="text;html=1;align=center;verticalAlign=middle;whiteSpace=wrap;rounded=0;" vertex="1" parent="1">
          <mxGeometry x="160" y="580" width="60" height="30" as="geometry" />
        </mxCell>
        <mxCell id="G-eda2eB4SDmfle7X4tl-2" value="Si" style="text;html=1;align=center;verticalAlign=middle;whiteSpace=wrap;rounded=0;" vertex="1" parent="1">
          <mxGeometry x="230" y="640" width="60" height="30" as="geometry" />
        </mxCell>
      </root>
    </mxGraphModel>
  </diagram>
</mxfile>
